<svg width="181" height="53" viewBox="0 0 181 53" fill="none" xmlns="http://www.w3.org/2000/svg">
<path d="M174.082 51.675C176.85 51.675 179.163 49.4225 179.163 46.7328V6.26725C179.163 3.5775 176.85 1.325 174.082 1.325H6.32419C5.66926 1.325 5.02076 1.45284 4.41569 1.70121C3.81062 1.94958 3.26084 2.31362 2.79774 2.77255C1.86247 3.6994 1.33704 4.95648 1.33704 6.26725V46.7328C1.33704 49.449 3.58326 51.675 6.32419 51.675H174.082ZM174.082 53H6.32419C2.84789 53 0 50.1778 0 46.7328V6.26725C0 2.82225 2.83452 0 6.32419 0H174.082C177.559 0 180.5 2.809 180.5 6.26725V46.7328C180.5 50.1778 177.559 53 174.082 53Z" fill="#A6A6A6"/>
</svg>
